<?xml version="1.0" standalone="no"?>
<!DOCTYPE svg PUBLIC "-//W3C//DTD SVG 20010904//EN"
 "http://www.w3.org/TR/2001/REC-SVG-20010904/DTD/svg10.dtd">
<svg version="1.0" xmlns="http://www.w3.org/2000/svg"
 width="4784.000000pt" height="4784.000000pt" viewBox="0 0 4784.000000 4784.000000"
 preserveAspectRatio="xMidYMid meet">
<metadata>
Created by potrace 1.14, written by Peter Selinger 2001-2017
</metadata>
<g transform="translate(0.000000,4784.000000) scale(0.100000,-0.100000)"
fill="#000000" stroke="none">
<path d="M39610 33710 c-2042 -81 -3601 -487 -4939 -1285 -802 -478 -1442
-1075 -1904 -1777 -50 -76 -91 -137 -92 -135 -1 1 -37 61 -80 132 -295 493
-716 942 -1244 1324 -1025 745 -2439 1186 -4246 1326 -110 8 -276 20 -370 27
-265 18 -9806 23 -9895 5 -54 -11 -77 -11 -134 0 -57 11 -441 13 -2000 11
l-1931 -3 -85 -28 c-96 -32 -192 -82 -262 -136 -26 -20 -1316 -1397 -2865
-3061 -1550 -1664 -2843 -3051 -2875 -3082 -102 -101 -225 -172 -368 -214 -88
-25 -308 -26 -395 -2 -142 39 -239 88 -351 178 -109 87 -214 251 -261 405 -17
57 -18 198 -23 2650 l-5 2590 -22 80 c-80 283 -275 490 -553 587 l-95 33
-1930 3 c-1379 2 -1949 0 -1995 -8 -315 -54 -577 -299 -662 -620 l-23 -85 0
-8705 0 -8705 23 -85 c85 -321 347 -566 662 -620 46 -8 616 -10 1995 -8 l1930
3 95 33 c278 97 474 305 552 587 l23 80 5 1915 5 1915 23 75 c29 94 89 209
146 280 52 66 1139 1229 1199 1283 95 86 215 152 343 189 104 29 303 32 409 5
121 -32 264 -109 350 -189 54 -51 716 -884 2367 -2982 1261 -1601 2320 -2938
2354 -2971 80 -78 195 -146 314 -187 l95 -33 6910 -3 c4823 -2 7002 0 7215 8
2124 75 3726 479 4950 1247 116 74 137 83 154 73 70 -44 322 -178 486 -259
1394 -689 3293 -1191 5185 -1371 593 -56 1003 -74 1680 -74 705 -1 1079 18
1655 80 1091 117 2033 351 2900 719 238 102 708 337 920 461 1096 642 1865
1445 2361 2468 233 481 391 1001 468 1536 90 621 73 1358 -45 1975 -138 719
-420 1337 -841 1847 -126 151 -554 574 -732 722 -531 442 -1105 782 -1726
1021 -896 345 -2104 681 -3632 1010 -1138 246 -1885 444 -2443 648 -382 140
-584 241 -765 382 -321 250 -467 586 -434 996 33 406 233 747 599 1020 296
221 656 362 1154 454 644 118 1557 132 2356 35 1044 -127 2079 -425 3180 -915
310 -138 372 -156 530 -157 165 -1 298 35 445 120 74 43 228 198 274 275 42
72 1074 2555 1104 2657 19 63 22 99 21 225 0 141 -2 156 -32 245 -55 164 -154
308 -280 403 -79 60 -110 77 -321 174 -950 437 -2051 762 -3277 967 -620 104
-1201 167 -1884 206 -249 14 -1153 20 -1420 10z m-23442 -12509 l-3 -3219
-2505 3245 c-1378 1785 -2518 3266 -2534 3292 -109 173 -148 428 -97 626 24
91 83 218 132 286 19 26 1152 1258 2519 2740 l2485 2693 3 -3222 c1 -1772 1
-4671 0 -6441z m9402 8269 c1387 -96 2119 -621 2210 -1585 52 -553 -101 -1042
-428 -1371 -364 -365 -918 -565 -1762 -636 -231 -19 -3399 -19 -3485 0 -332
75 -585 340 -644 676 -7 39 -11 424 -11 1123 0 930 2 1073 16 1140 56 275 231
491 486 601 148 64 47 60 1838 61 1001 1 1691 -3 1780 -9z m6699 -4002 c91
-214 241 -482 381 -678 270 -380 721 -829 1175 -1169 459 -344 958 -613 1525
-824 861 -320 2002 -640 3325 -932 1352 -299 2180 -528 2819 -782 359 -142
568 -265 737 -433 190 -189 295 -395 333 -653 28 -182 18 -356 -29 -536 -133
-501 -619 -861 -1399 -1036 -732 -163 -1787 -195 -2781 -84 -1211 135 -2536
509 -3700 1044 -199 91 -507 244 -538 267 -16 12 -19 41 -27 245 -47 1144
-385 2049 -1069 2863 -286 341 -663 670 -1085 947 -231 152 -309 233 -391 404
-85 178 -99 411 -36 599 55 162 90 211 330 450 119 119 252 259 296 313 44 53
82 97 85 97 3 0 25 -46 49 -102z m-5809 -3321 c426 -40 776 -110 1056 -212
146 -53 405 -186 514 -262 130 -93 311 -274 389 -392 196 -296 281 -604 281
-1021 0 -101 -6 -228 -15 -292 -96 -725 -532 -1193 -1340 -1438 -124 -37 -384
-93 -530 -114 -360 -52 -244 -50 -2522 -53 -2342 -4 -2185 -8 -2341 59 -255
110 -430 326 -486 601 -14 67 -16 218 -16 1236 0 1258 -1 1227 56 1380 30 80
97 189 163 263 116 131 314 232 502 257 35 5 973 8 2084 7 1810 -2 2039 -4
2205 -19z"/>
</g>
</svg>
